<?xml version="1.0" encoding="iso-8859-1"?>
<!-- Generator: Adobe Illustrator 19.0.0, SVG Export Plug-In . SVG Version: 6.00 Build 0)  -->
<svg version="1.1" id="Layer_1" xmlns="http://www.w3.org/2000/svg" xmlns:xlink="http://www.w3.org/1999/xlink" x="0px" y="0px"
	 viewBox="0 0 1080 1080" style="enable-background:new 0 0 1080 1080;" xml:space="preserve">
<g id="XMLID_2_">
	<rect id="XMLID_66_" y="96.293" style="fill:none;" width="1080" height="192.586"/>
	<path id="XMLID_4_" d="M90.806,96.292h17.6l16.7,28.2l16.6-28.2h17.5l-26.5,44v27.4h-15.7v-27.8L90.806,96.292z"/>
	<path id="XMLID_13_" d="M152.906,130.642c1.266-3.366,3.065-6.233,5.4-8.6c2.333-2.366,5.133-4.2,8.4-5.5
		c3.266-1.3,6.933-1.95,11-1.95c4.065,0,7.75,0.65,11.05,1.95c3.3,1.3,6.116,3.134,8.45,5.5c2.333,2.367,4.133,5.234,5.4,8.6
		c1.266,3.367,1.9,7.117,1.9,11.25c0,4.134-0.634,7.867-1.9,11.2c-1.267,3.334-3.067,6.185-5.4,8.55
		c-2.334,2.367-5.15,4.184-8.45,5.45c-3.3,1.266-6.984,1.9-11.05,1.9c-4.067,0-7.734-0.634-11-1.9
		c-3.267-1.266-6.067-3.083-8.4-5.45c-2.334-2.366-4.134-5.216-5.4-8.55c-1.268-3.333-1.9-7.065-1.9-11.2
		C151.006,137.759,151.639,134.009,152.906,130.642z M165.806,147.942c0.4,1.967,1.083,3.734,2.05,5.3
		c0.966,1.567,2.25,2.817,3.85,3.75c1.6,0.935,3.6,1.4,6,1.4s4.416-0.466,6.05-1.4c1.633-0.933,2.933-2.183,3.9-3.75
		c0.965-1.565,1.65-3.333,2.05-5.3c0.4-1.966,0.6-3.983,0.6-6.05c0-2.066-0.2-4.1-0.6-6.1s-1.084-3.766-2.05-5.3
		c-0.967-1.533-2.268-2.783-3.9-3.75c-1.634-0.965-3.65-1.45-6.05-1.45s-4.4,0.484-6,1.45c-1.6,0.967-2.884,2.217-3.85,3.75
		c-0.967,1.535-1.65,3.3-2.05,5.3s-0.6,4.034-0.6,6.1C165.206,143.959,165.406,145.976,165.806,147.942z"/>
	<path id="XMLID_16_" d="M248.705,167.692v-7.2h-0.3c-1.8,3-4.134,5.167-7,6.5c-2.867,1.333-5.8,2-8.8,2c-3.8,0-6.917-0.5-9.35-1.5
		c-2.435-1-4.35-2.416-5.75-4.25c-1.4-1.833-2.385-4.065-2.95-6.7c-0.567-2.633-0.85-5.55-0.85-8.75v-31.8h14.2v29.2
		c0,4.267,0.666,7.45,2,9.55c1.333,2.1,3.7,3.15,7.1,3.15c3.865,0,6.666-1.15,8.4-3.45c1.733-2.3,2.6-6.083,2.6-11.35v-27.1h14.2
		v51.7H248.705z"/>
	<path id="XMLID_18_" d="M337.504,161.092c-1.667,2.8-3.85,4.817-6.55,6.05c-2.7,1.232-5.75,1.85-9.15,1.85
		c-3.867,0-7.267-0.75-10.2-2.25c-2.935-1.5-5.35-3.533-7.25-6.1c-1.9-2.566-3.334-5.516-4.3-8.85c-0.967-3.333-1.45-6.8-1.45-10.4
		c0-3.466,0.482-6.816,1.45-10.05c0.966-3.233,2.4-6.083,4.3-8.55c1.9-2.466,4.283-4.45,7.15-5.95c2.866-1.5,6.2-2.25,10-2.25
		c3.065,0,5.983,0.65,8.75,1.95c2.766,1.3,4.95,3.217,6.55,5.75h0.2v-26h14.2v71.4h-13.5v-6.6H337.504z M336.904,135.542
		c-0.4-1.966-1.084-3.7-2.05-5.2c-0.967-1.5-2.217-2.715-3.75-3.65c-1.535-0.933-3.467-1.4-5.8-1.4c-2.334,0-4.3,0.467-5.9,1.4
		c-1.6,0.935-2.884,2.167-3.85,3.7c-0.967,1.534-1.667,3.284-2.1,5.25c-0.434,1.967-0.65,4.017-0.65,6.15c0,2,0.233,4,0.7,6
		c0.465,2,1.215,3.784,2.25,5.35c1.033,1.567,2.333,2.834,3.9,3.8c1.565,0.967,3.45,1.45,5.65,1.45c2.333,0,4.283-0.466,5.85-1.4
		c1.565-0.933,2.815-2.183,3.75-3.75c0.933-1.565,1.6-3.35,2-5.35s0.6-4.066,0.6-6.2
		C337.504,139.559,337.304,137.509,336.904,135.542z"/>
	<path id="XMLID_21_" d="M362.203,130.642c1.266-3.366,3.065-6.233,5.4-8.6c2.333-2.366,5.133-4.2,8.4-5.5
		c3.266-1.3,6.933-1.95,11-1.95c4.065,0,7.75,0.65,11.05,1.95c3.3,1.3,6.116,3.134,8.45,5.5c2.333,2.367,4.133,5.234,5.4,8.6
		c1.266,3.367,1.9,7.117,1.9,11.25c0,4.134-0.634,7.867-1.9,11.2c-1.267,3.334-3.067,6.185-5.4,8.55
		c-2.334,2.367-5.15,4.184-8.45,5.45c-3.3,1.266-6.984,1.9-11.05,1.9c-4.067,0-7.734-0.634-11-1.9
		c-3.267-1.266-6.067-3.083-8.4-5.45c-2.334-2.366-4.134-5.216-5.4-8.55c-1.268-3.333-1.9-7.065-1.9-11.2
		C360.303,137.759,360.936,134.009,362.203,130.642z M375.103,147.942c0.4,1.967,1.083,3.734,2.05,5.3
		c0.966,1.567,2.25,2.817,3.85,3.75c1.6,0.935,3.6,1.4,6,1.4s4.416-0.466,6.05-1.4c1.633-0.933,2.933-2.183,3.9-3.75
		c0.965-1.565,1.65-3.333,2.05-5.3c0.4-1.966,0.6-3.983,0.6-6.05c0-2.066-0.2-4.1-0.6-6.1s-1.084-3.766-2.05-5.3
		c-0.967-1.533-2.268-2.783-3.9-3.75c-1.634-0.965-3.65-1.45-6.05-1.45s-4.4,0.484-6,1.45c-1.6,0.967-2.884,2.217-3.85,3.75
		c-0.967,1.535-1.65,3.3-2.05,5.3s-0.6,4.034-0.6,6.1C374.503,143.959,374.703,145.976,375.103,147.942z"/>
	<path id="XMLID_24_" d="M436.502,115.992v7.2h0.3c1.8-3,4.133-5.183,7-6.55c2.865-1.366,5.8-2.05,8.8-2.05
		c3.8,0,6.916,0.517,9.35,1.55c2.433,1.034,4.35,2.467,5.75,4.3c1.4,1.834,2.383,4.067,2.95,6.7c0.566,2.634,0.85,5.55,0.85,8.75
		v31.8h-14.2v-29.2c0-4.266-0.667-7.45-2-9.55c-1.334-2.1-3.7-3.15-7.1-3.15c-3.867,0-6.667,1.15-8.4,3.45
		c-1.734,2.3-2.6,6.084-2.6,11.35v27.1h-14.2v-51.7H436.502z"/>
	<path id="XMLID_26_" d="M497.901,96.292v15.3c0.065,2.2-0.25,4.267-0.95,6.2c-0.7,1.934-1.684,3.634-2.95,5.1
		c-1.267,1.467-2.785,2.684-4.55,3.65c-1.767,0.967-3.684,1.584-5.75,1.85v-6.6c2.533-0.866,4.266-2.15,5.2-3.85
		c0.933-1.7,1.4-3.783,1.4-6.25h-6.6v-15.4H497.901z"/>
	<path id="XMLID_28_" d="M536.701,115.992v9.5h-10.4v25.6c0,2.4,0.4,4,1.2,4.8c0.8,0.8,2.4,1.2,4.8,1.2c0.8,0,1.566-0.033,2.3-0.1
		c0.732-0.065,1.433-0.166,2.1-0.3v11c-1.2,0.2-2.534,0.333-4,0.4c-1.467,0.066-2.9,0.1-4.3,0.1c-2.2,0-4.284-0.15-6.25-0.45
		c-1.967-0.3-3.7-0.883-5.2-1.75c-1.5-0.865-2.684-2.1-3.55-3.7c-0.867-1.6-1.3-3.7-1.3-6.3v-30.5h-8.6v-9.5h8.6v-15.5h14.2v15.5
		H536.701z"/>
	<path id="XMLID_30_" d="M585.5,96.292v26.9h0.301c1.8-3,4.1-5.183,6.899-6.55c2.8-1.366,5.533-2.05,8.2-2.05
		c3.8,0,6.916,0.517,9.35,1.55c2.434,1.034,4.351,2.467,5.75,4.3c1.4,1.834,2.383,4.067,2.95,6.7c0.565,2.634,0.851,5.55,0.851,8.75
		v31.8h-14.2v-29.2c0-4.266-0.667-7.45-2-9.55c-1.335-2.1-3.7-3.15-7.101-3.15c-3.867,0-6.667,1.15-8.399,3.45
		c-1.734,2.3-2.601,6.084-2.601,11.35v27.1h-14.199v-71.4H585.5z"/>
	<path id="XMLID_32_" d="M629.999,131.892c0.2-3.333,1.033-6.1,2.5-8.3c1.466-2.2,3.333-3.965,5.601-5.3
		c2.266-1.333,4.815-2.283,7.649-2.85c2.833-0.565,5.683-0.85,8.55-0.85c2.601,0,5.233,0.185,7.9,0.55
		c2.666,0.367,5.1,1.084,7.3,2.15c2.2,1.067,4,2.55,5.4,4.45c1.399,1.9,2.1,4.417,2.1,7.55v26.9c0,2.334,0.133,4.567,0.4,6.7
		c0.266,2.134,0.732,3.734,1.399,4.8h-14.399c-0.268-0.8-0.484-1.616-0.65-2.45c-0.167-0.833-0.284-1.683-0.35-2.55
		c-2.268,2.334-4.935,3.967-8,4.9c-3.067,0.933-6.2,1.4-9.4,1.4c-2.467,0-4.767-0.3-6.899-0.9c-2.135-0.6-4-1.533-5.601-2.8
		c-1.6-1.266-2.85-2.866-3.75-4.8c-0.899-1.933-1.35-4.232-1.35-6.9c0-2.933,0.516-5.35,1.55-7.25c1.033-1.9,2.365-3.416,4-4.55
		c1.633-1.133,3.5-1.983,5.6-2.55c2.101-0.565,4.216-1.016,6.351-1.35c2.133-0.333,4.232-0.6,6.3-0.8c2.065-0.2,3.9-0.5,5.5-0.9
		s2.865-0.983,3.8-1.75c0.933-0.766,1.366-1.883,1.3-3.35c0-1.533-0.25-2.75-0.75-3.65s-1.167-1.6-2-2.1
		c-0.834-0.5-1.8-0.833-2.899-1c-1.101-0.166-2.284-0.25-3.55-0.25c-2.801,0-5,0.6-6.601,1.8c-1.6,1.2-2.534,3.2-2.8,6H629.999z
		 M662.799,142.392c-0.6,0.534-1.35,0.95-2.25,1.25c-0.899,0.3-1.867,0.55-2.899,0.75c-1.034,0.2-2.117,0.367-3.25,0.5
		c-1.135,0.134-2.268,0.3-3.4,0.5c-1.067,0.2-2.117,0.467-3.149,0.8c-1.035,0.334-1.935,0.784-2.7,1.35
		c-0.768,0.567-1.385,1.284-1.851,2.15c-0.467,0.867-0.699,1.967-0.699,3.3c0,1.268,0.232,2.334,0.699,3.2
		c0.466,0.867,1.101,1.55,1.9,2.05s1.732,0.85,2.8,1.05c1.065,0.2,2.166,0.3,3.3,0.3c2.801,0,4.966-0.465,6.5-1.4
		c1.533-0.933,2.666-2.05,3.4-3.35c0.732-1.3,1.183-2.616,1.35-3.95c0.166-1.333,0.25-2.4,0.25-3.2V142.392z"/>
	<path id="XMLID_35_" d="M700.799,167.692l-17.7-51.7h14.9l10.899,35.3h0.2l10.9-35.3h14.1l-17.5,51.7H700.799z"/>
	<path id="XMLID_37_" d="M755.197,155.292c2.133,2.067,5.2,3.1,9.2,3.1c2.866,0,5.333-0.716,7.4-2.15
		c2.065-1.433,3.333-2.95,3.8-4.55h12.5c-2,6.2-5.067,10.634-9.2,13.3c-4.134,2.667-9.134,4-15,4c-4.067,0-7.734-0.65-11-1.95
		c-3.267-1.3-6.034-3.15-8.3-5.55c-2.268-2.4-4.018-5.266-5.25-8.6c-1.234-3.333-1.85-7-1.85-11c0-3.866,0.633-7.466,1.899-10.8
		c1.266-3.333,3.065-6.215,5.4-8.65c2.333-2.433,5.115-4.35,8.35-5.75c3.233-1.4,6.815-2.1,10.75-2.1c4.4,0,8.233,0.85,11.5,2.55
		c3.266,1.7,5.95,3.984,8.05,6.85c2.101,2.867,3.616,6.135,4.551,9.8c0.933,3.667,1.266,7.5,1,11.5h-37.301
		C751.897,149.892,753.063,153.226,755.197,155.292z M771.248,128.092c-1.7-1.866-4.285-2.8-7.75-2.8c-2.268,0-4.15,0.384-5.65,1.15
		c-1.5,0.767-2.7,1.717-3.6,2.85c-0.9,1.134-1.535,2.334-1.9,3.6c-0.367,1.267-0.584,2.4-0.65,3.4h23.101
		C774.131,132.692,772.947,129.959,771.248,128.092z"/>
	<path id="XMLID_40_" d="M824.597,131.892c0.2-3.333,1.033-6.1,2.5-8.3c1.466-2.2,3.333-3.965,5.601-5.3
		c2.266-1.333,4.815-2.283,7.649-2.85c2.833-0.565,5.683-0.85,8.55-0.85c2.601,0,5.233,0.185,7.9,0.55
		c2.666,0.367,5.1,1.084,7.3,2.15c2.2,1.067,4,2.55,5.4,4.45c1.399,1.9,2.1,4.417,2.1,7.55v26.9c0,2.334,0.133,4.567,0.4,6.7
		c0.266,2.134,0.732,3.734,1.399,4.8h-14.399c-0.268-0.8-0.484-1.616-0.65-2.45c-0.167-0.833-0.284-1.683-0.35-2.55
		c-2.268,2.334-4.935,3.967-8,4.9c-3.067,0.933-6.2,1.4-9.4,1.4c-2.467,0-4.767-0.3-6.899-0.9c-2.135-0.6-4-1.533-5.601-2.8
		c-1.6-1.266-2.85-2.866-3.75-4.8c-0.899-1.933-1.35-4.232-1.35-6.9c0-2.933,0.516-5.35,1.55-7.25c1.033-1.9,2.365-3.416,4-4.55
		c1.633-1.133,3.5-1.983,5.6-2.55c2.101-0.565,4.216-1.016,6.351-1.35c2.133-0.333,4.232-0.6,6.3-0.8c2.065-0.2,3.9-0.5,5.5-0.9
		s2.865-0.983,3.8-1.75c0.933-0.766,1.366-1.883,1.3-3.35c0-1.533-0.25-2.75-0.75-3.65s-1.167-1.6-2-2.1
		c-0.834-0.5-1.8-0.833-2.899-1c-1.101-0.166-2.284-0.25-3.55-0.25c-2.801,0-5,0.6-6.601,1.8c-1.6,1.2-2.534,3.2-2.8,6H824.597z
		 M857.396,142.392c-0.6,0.534-1.35,0.95-2.25,1.25c-0.899,0.3-1.867,0.55-2.899,0.75c-1.034,0.2-2.117,0.367-3.25,0.5
		c-1.135,0.134-2.268,0.3-3.4,0.5c-1.067,0.2-2.117,0.467-3.149,0.8c-1.035,0.334-1.935,0.784-2.7,1.35
		c-0.768,0.567-1.385,1.284-1.851,2.15c-0.467,0.867-0.699,1.967-0.699,3.3c0,1.268,0.232,2.334,0.699,3.2
		c0.466,0.867,1.101,1.55,1.9,2.05s1.732,0.85,2.8,1.05c1.065,0.2,2.166,0.3,3.3,0.3c2.801,0,4.966-0.465,6.5-1.4
		c1.533-0.933,2.666-2.05,3.4-3.35c0.732-1.3,1.183-2.616,1.35-3.95c0.166-1.333,0.25-2.4,0.25-3.2V142.392z"/>
	<path id="XMLID_43_" d="M896.097,115.992v7.2h0.3c1.8-3,4.133-5.183,7-6.55c2.865-1.366,5.8-2.05,8.8-2.05
		c3.8,0,6.916,0.517,9.35,1.55c2.434,1.034,4.351,2.467,5.75,4.3c1.4,1.834,2.383,4.067,2.95,6.7c0.565,2.634,0.851,5.55,0.851,8.75
		v31.8h-14.2v-29.2c0-4.266-0.667-7.45-2-9.55c-1.335-2.1-3.7-3.15-7.101-3.15c-3.867,0-6.667,1.15-8.399,3.45
		c-1.734,2.3-2.601,6.084-2.601,11.35v27.1h-14.199v-51.7H896.097z"/>
	<path id="XMLID_45_" d="M960.995,183.092c-2.734,1.8-6.534,2.7-11.4,2.7c-1.467,0-2.917-0.05-4.35-0.15
		c-1.435-0.1-2.885-0.217-4.35-0.35v-11.7c1.332,0.133,2.699,0.266,4.1,0.4c1.4,0.133,2.8,0.166,4.2,0.1
		c1.865-0.2,3.25-0.934,4.149-2.2c0.9-1.268,1.351-2.667,1.351-4.2c0-1.133-0.2-2.2-0.601-3.2l-18.1-48.5h15.1l11.7,35.4h0.2
		l11.3-35.4h14.7l-21.6,58.1C965.86,178.292,963.728,181.292,960.995,183.092z"/>
	<path id="XMLID_47_" d="M311.603,229.492v-13.2h58.5v13.2h-21.4v58.2h-15.7v-58.2H311.603z"/>
	<path id="XMLID_49_" d="M411.902,216.292c3.4,0,6.5,0.3,9.3,0.9c2.8,0.6,5.2,1.584,7.2,2.95c2,1.367,3.55,3.184,4.65,5.45
		c1.1,2.267,1.65,5.067,1.65,8.4c0,3.6-0.817,6.6-2.45,9c-1.634,2.4-4.05,4.367-7.25,5.9c4.4,1.267,7.683,3.484,9.85,6.65
		c2.166,3.167,3.25,6.984,3.25,11.45c0,3.6-0.7,6.717-2.1,9.35c-1.4,2.634-3.285,4.785-5.65,6.45c-2.367,1.667-5.067,2.9-8.1,3.7
		c-3.035,0.8-6.15,1.2-9.35,1.2h-34.6v-71.4H411.902z M409.902,245.192c2.8,0,5.1-0.666,6.9-2c1.8-1.333,2.7-3.5,2.7-6.5
		c0-1.666-0.3-3.033-0.9-4.1c-0.6-1.065-1.4-1.9-2.4-2.5s-2.15-1.016-3.45-1.25c-1.3-0.233-2.65-0.35-4.05-0.35h-14.7v16.7H409.902z
		 M410.802,275.492c1.533,0,3-0.15,4.4-0.45c1.4-0.3,2.633-0.8,3.7-1.5c1.065-0.7,1.916-1.65,2.55-2.85
		c0.633-1.2,0.95-2.733,0.95-4.6c0-3.666-1.034-6.283-3.1-7.85c-2.067-1.565-4.8-2.35-8.2-2.35h-17.1v19.6H410.802z"/>
	<path id="XMLID_53_" d="M464.401,216.292v27.4h28.9v-27.4h15.7v71.4h-15.7v-30.8h-28.9v30.8h-15.7v-71.4H464.401z"/>
	<path id="XMLID_55_" d="M533.251,274.842c0.633,1.1,1.45,2,2.45,2.7c1,0.7,2.15,1.217,3.45,1.55c1.3,0.334,2.65,0.5,4.05,0.5
		c1,0,2.049-0.116,3.15-0.35c1.1-0.232,2.1-0.6,3-1.1c0.898-0.5,1.648-1.166,2.25-2c0.6-0.833,0.898-1.883,0.898-3.15
		c0-2.133-1.416-3.732-4.25-4.8c-2.834-1.065-6.783-2.133-11.849-3.2c-2.067-0.465-4.084-1.016-6.05-1.65
		c-1.967-0.633-3.717-1.465-5.25-2.5c-1.535-1.033-2.768-2.333-3.7-3.9c-0.935-1.565-1.4-3.483-1.4-5.75
		c0-3.333,0.65-6.065,1.95-8.2c1.3-2.133,3.016-3.815,5.15-5.05c2.133-1.233,4.533-2.1,7.2-2.6c2.666-0.5,5.4-0.75,8.199-0.75
		c2.801,0,5.516,0.267,8.15,0.8c2.633,0.534,4.982,1.434,7.051,2.7c2.064,1.267,3.783,2.95,5.15,5.05
		c1.365,2.1,2.182,4.75,2.449,7.95h-13.5c-0.199-2.733-1.234-4.583-3.1-5.55c-1.867-0.966-4.068-1.45-6.6-1.45
		c-0.801,0-1.668,0.05-2.601,0.15c-0.935,0.1-1.785,0.317-2.55,0.65c-0.767,0.334-1.417,0.817-1.95,1.45
		c-0.535,0.634-0.8,1.484-0.8,2.55c0,1.267,0.466,2.3,1.4,3.1c0.933,0.8,2.15,1.45,3.65,1.95s3.216,0.95,5.149,1.35
		s3.9,0.834,5.9,1.3c2.066,0.467,4.082,1.035,6.051,1.7c1.965,0.667,3.715,1.55,5.25,2.65c1.531,1.1,2.766,2.467,3.699,4.1
		c0.934,1.634,1.4,3.65,1.4,6.05c0,3.4-0.686,6.25-2.051,8.55c-1.367,2.3-3.15,4.15-5.35,5.55s-4.717,2.384-7.551,2.95
		c-2.834,0.565-5.717,0.85-8.648,0.85c-3,0-5.935-0.3-8.801-0.9c-2.867-0.6-5.417-1.6-7.65-3c-2.234-1.4-4.067-3.25-5.5-5.55
		c-1.435-2.3-2.217-5.183-2.35-8.65h13.5C532.301,272.426,532.617,273.742,533.251,274.842z"/>
	<path id="XMLID_57_" d="M621.899,303.092c-2.734,1.8-6.534,2.7-11.4,2.7c-1.467,0-2.917-0.05-4.35-0.15
		c-1.435-0.1-2.885-0.217-4.35-0.35v-11.7c1.332,0.133,2.699,0.266,4.1,0.4c1.4,0.133,2.8,0.166,4.2,0.1
		c1.865-0.2,3.25-0.934,4.149-2.2c0.9-1.268,1.351-2.667,1.351-4.2c0-1.133-0.2-2.2-0.601-3.2l-18.1-48.5h15.1l11.7,35.4h0.2
		l11.3-35.4h14.7l-21.6,58.1C626.765,298.292,624.632,301.292,621.899,303.092z"/>
	<path id="XMLID_59_" d="M669.898,275.292c2.133,2.067,5.2,3.1,9.2,3.1c2.866,0,5.333-0.716,7.4-2.15
		c2.065-1.433,3.333-2.95,3.8-4.55h12.5c-2,6.2-5.067,10.634-9.2,13.3c-4.134,2.667-9.134,4-15,4c-4.067,0-7.734-0.65-11-1.95
		c-3.267-1.3-6.034-3.15-8.3-5.55c-2.268-2.4-4.018-5.266-5.25-8.6c-1.234-3.333-1.85-7-1.85-11c0-3.866,0.633-7.466,1.899-10.8
		c1.266-3.333,3.065-6.215,5.4-8.65c2.333-2.433,5.115-4.35,8.35-5.75c3.233-1.4,6.815-2.1,10.75-2.1c4.4,0,8.233,0.85,11.5,2.55
		c3.266,1.7,5.95,3.984,8.05,6.85c2.101,2.867,3.616,6.135,4.551,9.8c0.933,3.667,1.266,7.5,1,11.5h-37.301
		C666.599,269.892,667.765,273.226,669.898,275.292z M685.949,248.092c-1.7-1.866-4.285-2.8-7.75-2.8c-2.268,0-4.15,0.384-5.65,1.15
		c-1.5,0.767-2.7,1.717-3.6,2.85c-0.9,1.134-1.535,2.334-1.9,3.6c-0.367,1.267-0.584,2.4-0.65,3.4h23.101
		C688.832,252.692,687.648,249.959,685.949,248.092z"/>
	<path id="XMLID_62_" d="M740.498,235.992v9.5h-10.399v25.6c0,2.4,0.399,4,1.199,4.8c0.801,0.8,2.4,1.2,4.801,1.2
		c0.8,0,1.565-0.033,2.3-0.1c0.732-0.065,1.433-0.166,2.1-0.3v11c-1.2,0.2-2.534,0.333-4,0.4c-1.467,0.066-2.899,0.1-4.3,0.1
		c-2.2,0-4.284-0.15-6.25-0.45c-1.967-0.3-3.7-0.883-5.2-1.75c-1.5-0.865-2.685-2.1-3.55-3.7c-0.867-1.6-1.3-3.7-1.3-6.3v-30.5
		h-8.601v-9.5h8.601v-15.5h14.2v15.5H740.498z"/>
	<path id="XMLID_64_" d="M763.598,272.292v15.4h-15.7v-15.4H763.598z"/>
</g>
<path id="XMLID_7_" style="fill:#FFFFFF;stroke:#000000;stroke-width:10;stroke-linecap:round;stroke-linejoin:round;stroke-miterlimit:10;" d="
	M720,772.118V547.882c0-43.464-17.266-85.148-48-115.882l0,0H312l0,0c30.734,30.734,48,72.418,48,115.882v224.236
	c0,43.464,17.266,85.148,48,115.882l0,0h360l0,0C737.266,857.266,720,815.582,720,772.118z"/>
<g id="XMLID_5_">
	<path id="XMLID_6_" d="M563.053,576h43.767v44.62h-43.767V576z M506.211,620.62h-43.77V576h43.77V620.62z"/>
	<path id="XMLID_10_" d="M607.53,700.198c-21.696-4.929-43.722-7.388-66.079-7.388c-22.737,0-45.002,2.415-66.79,7.25
		c-21.785,4.829-43.009,12.645-63.662,23.447v-33.539c19.517-11.935,40.073-21.172,61.672-27.711
		c21.602-6.539,43.578-9.803,65.938-9.803c10.611,0,21.743,0.799,33.395,2.415c11.654,1.604,23.256,3.98,34.816,7.105
		c11.554,3.125,22.737,7.005,33.538,11.652c10.799,4.641,20.747,10.092,29.842,16.342v33.822
		C650.113,712.988,629.224,705.122,607.53,700.198z"/>
</g>
<g id="XMLID_1_">
</g>
<g id="XMLID_3_">
</g>
<g id="XMLID_67_">
</g>
<g id="XMLID_68_">
</g>
<g id="XMLID_69_">
</g>
<g id="XMLID_70_">
</g>
</svg>
